# xmcd CD database file
#
# Track frame offsets:
#	150
#	26519
#	108435
#	142625
#	183498
#	197936
#	210656
#
# Disc length: 3275 seconds
#
# Revision: 0
# Processed by: cddbd v1.5.2PL0 Copyright (c) Steve Scherf et al.
# Submitted via: CDex 1.51
#
DISCID=5c0cc907
DTITLE=Stefano Senni Saul Bass - Psychocandy
DYEAR=2008
DGENRE=Jazz
TTITLE0=Railway Junction
TTITLE1=Frantic Romantic
TTITLE2=ida y vuelta
TTITLE3=Beany
TTITLE4=The american astronaut
TTITLE5=To S.
TTITLE6=Vimini
EXTD=YEAR: 2008
EXTT0=
EXTT1=
EXTT2=
EXTT3=
EXTT4=
EXTT5=
EXTT6=
PLAYORDER=
